<?xml version="1.0" standalone="no"?>
<!DOCTYPE svg PUBLIC "-//W3C//DTD SVG 20010904//EN"
 "http://www.w3.org/TR/2001/REC-SVG-20010904/DTD/svg10.dtd">
<svg version="1.0" xmlns="http://www.w3.org/2000/svg"
 width="225.000000pt" height="224.000000pt" viewBox="0 0 225.000000 224.000000"
 preserveAspectRatio="xMidYMid meet">
<metadata>
Created by potrace 1.10, written by Peter Selinger 2001-2011
</metadata>
<g transform="translate(0.000000,224.000000) scale(0.050000,-0.050000)"
fill="#000000" stroke="none">
<path d="M2150 4453 c-165 -76 -307 -412 -310 -733 l-1 -110 -43 60 c-95 133
-356 372 -460 420 -432 202 -595 -263 -282 -807 63 -110 64 -109 -114 -49
-813 275 -1068 -282 -336 -733 l155 -95 -134 -33 c-837 -203 -822 -800 20
-802 270 -1 263 5 144 -112 -641 -629 -190 -1140 540 -612 118 85 119 85 90
-39 -206 -883 435 -1099 774 -261 l63 156 24 -76 c120 -376 425 -677 613 -606
216 82 298 494 175 885 -8 24 36 4 138 -66 743 -504 1129 -26 510 631 l-95
102 215 0 c860 2 883 633 29 809 -107 22 -171 58 -104 58 76 0 413 266 496
392 257 388 -147 606 -741 399 l-134 -46 69 136 c425 845 -188 1151 -743 371
l-42 -58 -12 158 c-36 465 -268 769 -504 661z m166 -219 c190 -202 208 -905
32 -1209 -94 -162 -203 -79 -277 210 -127 494 49 1208 245 999z m-1035 -331
c304 -195 599 -676 599 -974 0 -364 -590 168 -751 677 -99 315 -44 423 152
297z m2107 25 c97 -253 -299 -949 -621 -1092 -325 -143 -113 569 281 945 167
159 311 222 340 147z m-2562 -860 c253 -64 585 -267 706 -431 232 -314 -482
-232 -945 109 -384 283 -261 449 239 322z m3283 25 c82 -60 -39 -230 -279
-390 -411 -275 -1021 -350 -897 -110 158 306 969 652 1176 500z m-1690 -403
c432 -152 466 -744 56 -949 -442 -221 -904 243 -686 689 115 234 386 346 630
260z m-1052 -498 c228 -69 196 -181 -87 -309 -473 -213 -1278 -134 -1025 101
224 208 771 311 1112 208z m2480 -2 c500 -136 593 -343 185 -411 -504 -85
-1270 216 -979 386 137 79 545 92 794 25z m-2151 -474 c155 -155 -447 -787
-852 -895 -452 -121 74 655 586 864 153 62 226 71 266 31z m1474 -74 c274
-135 587 -463 653 -683 104 -348 -637 11 -922 447 -217 330 -110 424 269 236z
m-1076 -207 c122 -230 -40 -894 -281 -1145 -144 -151 -213 -99 -229 171 -28
482 369 1239 510 974z m497 -18 c239 -220 412 -881 300 -1148 -122 -292 -511
412 -511 925 0 309 55 367 211 223z"/>
</g>
</svg>
